<svg width="375" height="46" viewBox="0 0 375 46" fill="none" xmlns="http://www.w3.org/2000/svg">
<g clip-path="url(#clip0_1554_155839)">
<rect width="375" height="46" fill="#111112"/>
<g clip-path="url(#clip1_1554_155839)">
<rect width="578" height="141" transform="translate(-101.5 -39.5)" fill="#210085"/>
<g style="mix-blend-mode:multiply">
<g clip-path="url(#clip2_1554_155839)">
<g clip-path="url(#clip3_1554_155839)">
<rect width="590.424" height="488.871" transform="translate(928.969 298.813) rotate(-180)" fill="white"/>
<rect width="860.507" height="945.411" transform="translate(772.968 687.736) rotate(-150)" fill="white"/>
<rect x="892.291" y="481.062" width="860.507" height="9.17874" transform="rotate(-150 892.291 481.062)" fill="black"/>
<rect x="901.47" y="465.164" width="860.507" height="9.17874" transform="rotate(-150 901.47 465.164)" fill="black"/>
<rect x="910.649" y="449.265" width="860.507" height="9.17874" transform="rotate(-150 910.649 449.265)" fill="black"/>
<rect x="919.827" y="433.367" width="860.507" height="9.17874" transform="rotate(-150 919.827 433.367)" fill="black"/>
<rect x="929.006" y="417.469" width="860.507" height="9.17874" transform="rotate(-150 929.006 417.469)" fill="black"/>
<rect x="938.185" y="401.571" width="860.507" height="9.17874" transform="rotate(-150 938.185 401.571)" fill="black"/>
<rect x="947.364" y="385.673" width="860.507" height="9.17874" transform="rotate(-150 947.364 385.673)" fill="black"/>
<rect x="956.542" y="369.775" width="860.507" height="9.17874" transform="rotate(-150 956.542 369.775)" fill="black"/>
<rect x="965.721" y="353.877" width="860.507" height="9.17874" transform="rotate(-150 965.721 353.877)" fill="black"/>
<rect x="974.9" y="337.979" width="860.507" height="9.17874" transform="rotate(-150 974.9 337.979)" fill="black"/>
<rect x="984.079" y="322.081" width="860.507" height="9.17874" transform="rotate(-150 984.079 322.081)" fill="black"/>
<rect x="993.257" y="306.183" width="860.507" height="9.17874" transform="rotate(-150 993.257 306.183)" fill="black"/>
<rect x="1002.44" y="290.285" width="860.507" height="9.17874" transform="rotate(-150 1002.44 290.285)" fill="black"/>
<rect x="1011.61" y="274.387" width="860.507" height="9.17874" transform="rotate(-150 1011.61 274.387)" fill="black"/>
<rect x="1020.79" y="258.488" width="860.507" height="9.17874" transform="rotate(-150 1020.79 258.488)" fill="black"/>
<rect x="1029.97" y="242.59" width="860.507" height="9.17874" transform="rotate(-150 1029.97 242.59)" fill="black"/>
<rect x="1039.15" y="226.692" width="860.507" height="9.17874" transform="rotate(-150 1039.15 226.692)" fill="black"/>
<rect x="1048.33" y="210.794" width="860.507" height="9.17874" transform="rotate(-150 1048.33 210.794)" fill="black"/>
<rect x="1057.51" y="194.896" width="860.507" height="9.17874" transform="rotate(-150 1057.51 194.896)" fill="black"/>
<rect x="1066.69" y="178.998" width="860.507" height="9.17874" transform="rotate(-150 1066.69 178.998)" fill="black"/>
<rect x="1075.87" y="163.1" width="860.507" height="9.17874" transform="rotate(-150 1075.87 163.1)" fill="black"/>
<rect x="1085.04" y="147.202" width="860.507" height="9.17874" transform="rotate(-150 1085.04 147.202)" fill="black"/>
<rect x="1094.22" y="131.304" width="860.507" height="9.17874" transform="rotate(-150 1094.22 131.304)" fill="black"/>
<rect x="1103.4" y="115.406" width="860.507" height="9.17874" transform="rotate(-150 1103.4 115.406)" fill="black"/>
<rect x="1112.58" y="99.5083" width="860.507" height="9.17874" transform="rotate(-150 1112.58 99.5083)" fill="black"/>
<g style="mix-blend-mode:difference">
<path fill-rule="evenodd" clip-rule="evenodd" d="M339.652 298.888L425.048 298.888L560.017 165.314C600.748 125.003 666.785 125.003 707.517 165.314L842.485 298.888L927.88 298.888L750.215 123.057C685.902 59.409 581.631 59.409 517.317 123.057L339.652 298.888ZM928.969 -190.057L843.574 -190.057L707.508 -55.3967C666.777 -15.0859 600.74 -15.0859 560.008 -55.3967L423.942 -190.058L338.545 -190.058L517.309 -13.141C581.623 50.5071 685.893 50.5071 750.206 -13.141L928.969 -190.057Z" fill="white"/>
</g>
</g>
</g>
</g>
<path d="M855.758 319.587C855.761 323.851 855.705 328.122 855.591 332.401C1006.64 415.078 1099.25 577.127 1094.6 750.632C1277.59 850.804 1374.8 1067.47 1317.22 1279.86L1152.79 1236.32C1195.63 1078.33 1103.21 916.596 946.358 875.079L522.738 762.951C603.388 739.785 672.862 696.326 727.173 639.553L920.125 690.625C908.07 619.641 870.331 555.31 814.291 510.553C841.048 451.51 855.622 386.539 855.758 319.587Z" fill="#5500FF"/>
<path d="M727.176 -1.00085C763.327 36.7902 792.76 80.4803 814.297 128.011C783.703 152.452 747.654 171.057 707.35 181.726L656.696 195.133C627.834 134.477 578.466 84.1775 514.855 55.1982L727.176 -1.00085Z" fill="#5500FF"/>
<path d="M522.745 -124.4C519.603 -125.303 516.444 -126.175 513.268 -127.016L451.934 -143.25L426.625 -98.9583L187.627 -35.6991L363.825 10.9388L426.625 -98.9583L522.745 -124.4Z" fill="#5500FF"/>
<path d="M11.4283 10.9391L68.142 110.186L-139.601 55.1981C-124.844 48.4756 -109.321 42.9004 -93.1101 38.6094L11.4283 10.9391Z" fill="#5500FF"/>
<path d="M-351.923 -1.0011L-544.856 -52.0685C-532.808 18.9156 -495.077 83.2489 -439.045 128.011C-465.885 187.245 -480.465 252.444 -480.506 319.625C-480.515 315.149 -480.46 310.665 -480.34 306.173C-631.38 223.489 -723.979 61.4375 -719.325 -112.067C-902.327 -212.233 -999.546 -428.906 -941.963 -641.304L-777.537 -597.772C-820.376 -439.778 -727.955 -278.044 -571.107 -236.527L-147.491 -124.401C-228.14 -101.233 -297.613 -57.7738 -351.923 -1.0011Z" fill="#5500FF"/>
<path d="M-76.6813 -143.25L-170.886 -308.104L187.627 -213.209L-76.6813 -143.25Z" fill="#5500FF"/>
<path d="M-351.92 639.553C-388.069 601.766 -417.501 558.08 -439.038 510.554C-408.451 486.124 -372.411 467.527 -332.119 456.862L-281.429 443.445C-252.565 504.09 -203.2 554.379 -139.596 583.353L-351.92 639.553Z" fill="#5500FF"/>
<path d="M-147.484 762.951C-144.345 763.853 -141.189 764.724 -138.017 765.564L-76.6809 781.799L-51.3735 737.512L-147.484 762.951Z" fill="#5500FF"/>
<path d="M187.627 851.758L546.138 946.652L451.934 781.799L187.627 851.758Z" fill="#5500FF"/>
<path d="M11.4305 627.61L-51.369 737.508L187.627 674.248L11.4305 627.61Z" fill="#5500FF"/>
<path d="M363.822 627.611L307.151 528.438L187.627 496.801L275.744 473.478L307.11 528.366L514.849 583.353C500.094 590.075 484.573 595.649 468.363 599.94L363.822 627.611Z" fill="#5500FF"/>
<path d="M656.682 443.445C668.26 419.12 676.539 393.129 681.117 366.18L522.945 408.046L656.682 443.445Z" fill="#5500FF"/>
<path d="M187.635 319.289L522.946 230.536L275.728 165.1L187.626 319.274L187.635 319.289Z" fill="#5500FF"/>
<path d="M-147.692 230.536L-305.869 272.403C-301.295 245.452 -293.018 219.46 -281.443 195.133L-147.692 230.536Z" fill="#5500FF"/>
<path d="M99.5247 165.1L187.627 141.78L68.1233 110.149L99.5247 165.1Z" fill="#5500FF"/>
<path d="M187.618 319.289L187.627 319.291L187.615 319.294L187.618 319.289Z" fill="#5500FF"/>
<path d="M99.5088 473.477L-147.691 408.046L187.615 319.294L99.5088 473.477Z" fill="#5500FF"/>
<path d="M1152.79 -597.772L1317.22 -641.304C1374.8 -428.906 1277.58 -212.233 1094.58 -112.066C1099.23 61.4375 1006.63 223.489 855.591 306.173C855.709 310.559 855.764 314.937 855.758 319.307C855.671 252.239 841.096 187.151 814.297 128.01C870.329 83.2482 908.06 18.915 920.108 -52.0687L727.175 -1.00146C672.866 -57.774 603.393 -101.234 522.745 -124.401L946.359 -236.527C1103.21 -278.044 1195.63 -439.778 1152.79 -597.772Z" fill="#FF00FF"/>
<path d="M451.933 -143.251L546.138 -308.104L187.627 -213.21L451.933 -143.251Z" fill="#FF00FF"/>
<path d="M-76.6815 -143.25L-138.016 -127.016C-141.191 -126.175 -144.35 -125.304 -147.491 -124.401L-51.3719 -98.9594L11.4283 10.9385L187.627 -35.6996L-51.3719 -98.9594L-76.6815 -143.25Z" fill="#FF00FF"/>
<path d="M363.824 10.938L307.11 110.186L514.855 55.1976C500.098 48.4749 484.574 42.8994 468.362 38.6083L363.824 10.938Z" fill="#FF00FF"/>
<path d="M656.695 195.133L522.945 230.535L681.121 272.403C676.547 245.452 668.271 219.459 656.695 195.133Z" fill="#FF00FF"/>
<path d="M275.727 165.099L307.128 110.149L187.626 141.78L275.727 165.099Z" fill="#FF00FF"/>
<path d="M99.5245 165.099L187.626 319.273L187.618 319.288L-147.692 230.535L99.5245 165.099Z" fill="#FF00FF"/>
<path d="M-281.443 195.132C-252.581 134.476 -203.213 84.1764 -139.602 55.1975L-351.923 -1.00183C-388.075 36.7892 -417.507 80.4791 -439.045 128.01C-408.451 152.451 -372.401 171.057 -332.097 181.725L-281.443 195.132Z" fill="#FF00FF"/>
<path d="M-139.596 583.353C-124.841 590.074 -109.32 595.648 -93.111 599.939L11.4297 627.61L68.1003 528.438L187.626 496.801L99.5082 473.477L68.142 528.366L-139.596 583.353Z" fill="#FF00FF"/>
<path d="M-147.692 408.046L-281.43 443.445C-293.007 419.12 -301.287 393.129 -305.864 366.179L-147.692 408.046Z" fill="#FF00FF"/>
<path d="M187.627 319.291L187.635 319.288L187.638 319.293L187.627 319.291Z" fill="#FF00FF"/>
<path d="M522.945 408.046L187.638 319.293L275.744 473.477L522.945 408.046Z" fill="#FF00FF"/>
<path d="M656.682 443.444C627.817 504.09 578.452 554.378 514.849 583.352L727.172 639.552C763.321 601.765 792.753 558.079 814.29 510.553C783.703 486.123 747.663 467.526 707.372 456.861L656.682 443.444Z" fill="#FF00FF"/>
<path d="M522.737 762.951L426.626 737.511L451.933 781.798L513.268 765.564C516.441 764.724 519.598 763.853 522.737 762.951Z" fill="#FF00FF"/>
<path d="M187.626 851.758L-76.6816 781.798L-170.886 946.652L187.626 851.758Z" fill="#FF00FF"/>
<path d="M363.822 627.61L187.626 674.247L426.621 737.507L363.822 627.61Z" fill="#FF00FF"/>
<path d="M-480.505 319.558C-480.37 386.513 -465.796 451.487 -439.037 510.533C-408.45 486.103 -372.41 467.506 -332.119 456.841L-281.429 443.424C-293.006 419.099 -301.286 393.108 -305.863 366.159L-147.691 408.025L187.616 319.273L99.5094 473.457L187.627 496.78L275.745 473.457L187.638 319.273L522.946 408.025L681.117 366.159C676.54 393.109 668.26 419.099 656.683 443.424L707.373 456.841C747.664 467.506 783.704 486.103 814.292 510.533C841.055 451.476 855.629 386.49 855.759 319.522C855.706 252.371 841.128 187.2 814.298 127.99C783.704 152.431 747.654 171.036 707.351 181.705L656.696 195.112C668.271 219.439 676.548 245.431 681.123 272.382L522.946 230.515L187.635 319.268L187.638 319.273L187.627 319.27L187.616 319.273L187.619 319.268L-147.692 230.515L-305.868 272.382C-301.294 245.431 -293.017 219.439 -281.442 195.112L-332.096 181.705C-372.4 171.036 -408.45 152.43 -439.044 127.99C-465.878 187.211 -480.457 252.394 -480.505 319.558Z" fill="#FFFF00"/>
<path d="M-351.922 -1.02203L-139.601 55.1772C-124.844 48.4546 -109.321 42.8793 -93.1093 38.5883L11.4291 10.9179L-51.3709 -98.9796L187.628 -35.72L426.626 -98.9796L451.935 -17.962H501.497C517.708 -13.6709 500.098 48.4546 514.855 55.1774L727.176 -1.02179C672.867 -57.7945 603.394 -101.254 522.745 -124.422L426.626 -98.9796L451.935 -143.271L187.628 -213.23L-76.6805 -143.271L-51.3709 -98.9796L-147.49 -124.422C-228.139 -101.254 -297.612 -57.7947 -351.922 -1.02203Z" fill="#FFFF00"/>
<path d="M99.5255 165.079L187.627 319.253L275.729 165.079L187.627 141.759L99.5255 165.079Z" fill="#FFFF00"/>
<mask id="mask0_1554_155839" style="mask-type:alpha" maskUnits="userSpaceOnUse" x="-118" y="10" width="150" height="36">
<path d="M12.3405 10.8779C4.49306 12.9808 -33.5995 22.8848 -117.798 45.3154H31.9111C25.273 32.8356 16.1337 17.7179 12.3405 10.8779Z" fill="black"/>
</mask>
<g mask="url(#mask0_1554_155839)">
<g style="mix-blend-mode:multiply">
<g clip-path="url(#clip4_1554_155839)">
<g clip-path="url(#clip5_1554_155839)">
<rect width="293.554" height="243.062" transform="translate(205.196 122.349) rotate(-180)" fill="white"/>
<rect width="427.837" height="470.05" transform="translate(127.634 315.718) rotate(-150)" fill="white"/>
<rect x="159.579" y="260.387" width="427.837" height="4.56359" transform="rotate(-150 159.579 260.387)" fill="black"/>
<rect x="164.142" y="252.482" width="427.837" height="4.56359" transform="rotate(-150 164.142 252.482)" fill="black"/>
<rect x="168.706" y="244.578" width="427.837" height="4.56359" transform="rotate(-150 168.706 244.578)" fill="black"/>
<rect x="173.27" y="236.674" width="427.837" height="4.56359" transform="rotate(-150 173.27 236.674)" fill="black"/>
<rect x="177.833" y="228.77" width="427.837" height="4.56359" transform="rotate(-150 177.833 228.77)" fill="black"/>
<rect x="182.397" y="220.865" width="427.837" height="4.56359" transform="rotate(-150 182.397 220.865)" fill="black"/>
<rect x="186.96" y="212.961" width="427.837" height="4.56359" transform="rotate(-150 186.96 212.961)" fill="black"/>
<rect x="191.524" y="205.057" width="427.837" height="4.56359" transform="rotate(-150 191.524 205.057)" fill="black"/>
<rect x="196.088" y="197.152" width="427.837" height="4.56359" transform="rotate(-150 196.088 197.152)" fill="black"/>
<rect x="200.651" y="189.248" width="427.837" height="4.56359" transform="rotate(-150 200.651 189.248)" fill="black"/>
<rect x="205.215" y="181.343" width="427.837" height="4.56359" transform="rotate(-150 205.215 181.343)" fill="black"/>
<rect x="209.778" y="173.439" width="427.837" height="4.56359" transform="rotate(-150 209.778 173.439)" fill="black"/>
<rect x="214.342" y="165.535" width="427.837" height="4.56359" transform="rotate(-150 214.342 165.535)" fill="black"/>
<rect x="218.905" y="157.63" width="427.837" height="4.56359" transform="rotate(-150 218.905 157.63)" fill="black"/>
<rect x="223.469" y="149.726" width="427.837" height="4.56359" transform="rotate(-150 223.469 149.726)" fill="black"/>
<rect x="228.033" y="141.821" width="427.837" height="4.56359" transform="rotate(-150 228.033 141.821)" fill="black"/>
<rect x="232.596" y="133.917" width="427.837" height="4.56359" transform="rotate(-150 232.596 133.917)" fill="black"/>
<rect x="237.16" y="126.013" width="427.837" height="4.56359" transform="rotate(-150 237.16 126.013)" fill="black"/>
<rect x="241.723" y="118.108" width="427.837" height="4.56359" transform="rotate(-150 241.723 118.108)" fill="black"/>
<rect x="246.287" y="110.204" width="427.837" height="4.56359" transform="rotate(-150 246.287 110.204)" fill="black"/>
<rect x="250.851" y="102.3" width="427.837" height="4.56359" transform="rotate(-150 250.851 102.3)" fill="black"/>
<rect x="255.414" y="94.3955" width="427.837" height="4.56359" transform="rotate(-150 255.414 94.3955)" fill="black"/>
<rect x="259.978" y="86.4907" width="427.837" height="4.56359" transform="rotate(-150 259.978 86.4907)" fill="black"/>
<rect x="264.541" y="78.5864" width="427.837" height="4.56359" transform="rotate(-150 264.541 78.5864)" fill="black"/>
<rect x="269.105" y="70.6821" width="427.837" height="4.56359" transform="rotate(-150 269.105 70.6821)" fill="black"/>
<rect x="273.669" y="62.7778" width="427.837" height="4.56359" transform="rotate(-150 273.669 62.7778)" fill="black"/>
<rect x="278.232" y="54.8735" width="427.837" height="4.56359" transform="rotate(-150 278.232 54.8735)" fill="black"/>
<rect x="282.796" y="46.9692" width="427.837" height="4.56359" transform="rotate(-150 282.796 46.9692)" fill="black"/>
<rect x="287.359" y="39.0645" width="427.837" height="4.56359" transform="rotate(-150 287.359 39.0645)" fill="black"/>
<rect x="291.923" y="31.1602" width="427.837" height="4.56359" transform="rotate(-150 291.923 31.1602)" fill="black"/>
<rect x="296.487" y="23.2559" width="427.837" height="4.56359" transform="rotate(-150 296.487 23.2559)" fill="black"/>
<rect x="301.05" y="15.3516" width="427.837" height="4.56359" transform="rotate(-150 301.05 15.3516)" fill="black"/>
<g style="mix-blend-mode:difference">
<path fill-rule="evenodd" clip-rule="evenodd" d="M-87.8073 122.386L-45.349 122.386L21.7563 55.974C42.0077 35.9319 74.8408 35.9319 95.092 55.974L162.197 122.386L204.655 122.386L116.321 34.9644C84.3453 3.31897 32.5029 3.31897 0.526421 34.9644L-87.8073 122.386ZM205.196 -120.714L162.738 -120.714L95.0879 -53.7614C74.8366 -33.7192 42.0035 -33.7193 21.7521 -53.7614L-45.899 -120.714L-88.3573 -120.714L0.522261 -32.7523C32.4987 -1.10697 84.3411 -1.10697 116.317 -32.7523L205.196 -120.714Z" fill="white"/>
</g>
</g>
</g>
</g>
</g>
</g>
</g>
<defs>
<clipPath id="clip0_1554_155839">
<rect width="375" height="46" fill="white"/>
</clipPath>
<clipPath id="clip1_1554_155839">
<rect width="578" height="141" fill="white" transform="translate(-101.5 -39.5)"/>
</clipPath>
<clipPath id="clip2_1554_155839">
<rect width="238.817" height="446.222" fill="white" transform="translate(603.415 298.813) rotate(-180)"/>
</clipPath>
<clipPath id="clip3_1554_155839">
<rect width="590.424" height="488.871" fill="white" transform="translate(928.969 298.813) rotate(-180)"/>
</clipPath>
<clipPath id="clip4_1554_155839">
<rect width="118.738" height="221.858" fill="white" transform="translate(43.3336 122.349) rotate(-180)"/>
</clipPath>
<clipPath id="clip5_1554_155839">
<rect width="293.554" height="243.062" fill="white" transform="translate(205.196 122.349) rotate(-180)"/>
</clipPath>
</defs>
</svg>
