<svg width="1024" height="46" viewBox="0 0 1024 46" fill="none" xmlns="http://www.w3.org/2000/svg">
<g clip-path="url(#clip0_1554_155364)">
<rect width="1024" height="46" fill="#111112"/>
<g clip-path="url(#clip1_1554_155364)">
<rect width="1312" height="333" transform="translate(-143.5 -99)" fill="#210085"/>
<g style="mix-blend-mode:multiply">
<g clip-path="url(#clip2_1554_155364)">
<g clip-path="url(#clip3_1554_155364)">
<rect width="476.564" height="394.595" transform="translate(766.229 -89.1938)" fill="white"/>
<rect width="694.563" height="763.095" transform="translate(892.147 -403.115) rotate(30)" fill="white"/>
<rect x="862.512" y="-351.786" width="694.564" height="7.40868" transform="rotate(30 862.512 -351.786)" fill="black"/>
<rect x="855.104" y="-338.954" width="694.564" height="7.40868" transform="rotate(30 855.104 -338.954)" fill="black"/>
<rect x="847.695" y="-326.122" width="694.564" height="7.40868" transform="rotate(30 847.695 -326.122)" fill="black"/>
<rect x="840.286" y="-313.29" width="694.564" height="7.40868" transform="rotate(30 840.286 -313.29)" fill="black"/>
<rect x="832.878" y="-300.457" width="694.564" height="7.40868" transform="rotate(30 832.878 -300.457)" fill="black"/>
<rect x="825.469" y="-287.625" width="694.564" height="7.40868" transform="rotate(30 825.469 -287.625)" fill="black"/>
<rect x="818.06" y="-274.793" width="694.564" height="7.40868" transform="rotate(30 818.06 -274.793)" fill="black"/>
<rect x="810.652" y="-261.96" width="694.564" height="7.40868" transform="rotate(30 810.652 -261.96)" fill="black"/>
<rect x="803.243" y="-249.128" width="694.564" height="7.40868" transform="rotate(30 803.243 -249.128)" fill="black"/>
<rect x="795.834" y="-236.296" width="694.564" height="7.40868" transform="rotate(30 795.834 -236.296)" fill="black"/>
<rect x="788.426" y="-223.464" width="694.564" height="7.40868" transform="rotate(30 788.426 -223.464)" fill="black"/>
<rect x="781.017" y="-210.632" width="694.564" height="7.40868" transform="rotate(30 781.017 -210.632)" fill="black"/>
<rect x="773.608" y="-197.799" width="694.564" height="7.40868" transform="rotate(30 773.608 -197.799)" fill="black"/>
<rect x="766.2" y="-184.967" width="694.564" height="7.40868" transform="rotate(30 766.2 -184.967)" fill="black"/>
<rect x="758.791" y="-172.135" width="694.564" height="7.40868" transform="rotate(30 758.791 -172.135)" fill="black"/>
<rect x="751.382" y="-159.303" width="694.564" height="7.40868" transform="rotate(30 751.382 -159.303)" fill="black"/>
<rect x="743.974" y="-146.471" width="694.564" height="7.40868" transform="rotate(30 743.974 -146.471)" fill="black"/>
<rect x="736.565" y="-133.638" width="694.564" height="7.40868" transform="rotate(30 736.565 -133.638)" fill="black"/>
<rect x="729.156" y="-120.806" width="694.564" height="7.40868" transform="rotate(30 729.156 -120.806)" fill="black"/>
<rect x="721.747" y="-107.974" width="694.564" height="7.40868" transform="rotate(30 721.747 -107.974)" fill="black"/>
<rect x="714.339" y="-95.1416" width="694.564" height="7.40868" transform="rotate(30 714.339 -95.1416)" fill="black"/>
<rect x="706.93" y="-82.3091" width="694.564" height="7.40868" transform="rotate(30 706.93 -82.3091)" fill="black"/>
<rect x="699.521" y="-69.4771" width="694.564" height="7.40868" transform="rotate(30 699.521 -69.4771)" fill="black"/>
<rect x="692.113" y="-56.6445" width="694.564" height="7.40868" transform="rotate(30 692.113 -56.6445)" fill="black"/>
<rect x="684.704" y="-43.8125" width="694.564" height="7.40868" transform="rotate(30 684.704 -43.8125)" fill="black"/>
<rect x="677.295" y="-30.9805" width="694.564" height="7.40868" transform="rotate(30 677.295 -30.9805)" fill="black"/>
<rect x="669.887" y="-18.1479" width="694.564" height="7.40868" transform="rotate(30 669.887 -18.1479)" fill="black"/>
<rect x="662.478" y="-5.31592" width="694.564" height="7.40868" transform="rotate(30 662.478 -5.31592)" fill="black"/>
<rect x="655.069" y="7.5166" width="694.564" height="7.40868" transform="rotate(30 655.069 7.5166)" fill="black"/>
<rect x="647.661" y="20.3486" width="694.564" height="7.40868" transform="rotate(30 647.661 20.3486)" fill="black"/>
<rect x="640.252" y="33.1807" width="694.564" height="7.40868" transform="rotate(30 640.252 33.1807)" fill="black"/>
<g style="mix-blend-mode:difference">
<path fill-rule="evenodd" clip-rule="evenodd" d="M1241.9 -89.2539L1172.97 -89.2539L1064.03 18.5609C1031.15 51.0978 977.852 51.0978 944.976 18.5609L836.035 -89.2539L767.108 -89.2539L910.512 52.6685C962.422 104.043 1046.58 104.043 1098.5 52.6685L1241.9 -89.2539ZM766.229 305.401L835.157 305.401L944.983 196.709C977.859 164.172 1031.16 164.172 1064.04 196.709L1173.86 305.401L1242.79 305.401L1098.5 162.602C1046.59 111.228 962.429 111.228 910.519 162.602L766.229 305.401Z" fill="white"/>
</g>
</g>
</g>
</g>
<path d="M2029.37 749.055C2029.38 759.125 2029.25 769.213 2028.99 779.318C2371.86 974.576 2582.07 1357.29 2571.52 1767.05C2986.88 2003.63 3207.54 2515.32 3076.83 3016.93L2703.6 2914.11C2800.84 2540.98 2591.06 2159.01 2235.03 2060.96L1273.45 1796.15C1456.52 1741.44 1614.22 1638.8 1737.5 1504.72L2175.48 1625.34C2148.12 1457.69 2062.45 1305.76 1935.25 1200.06C1995.98 1060.62 2029.07 907.177 2029.37 749.055Z" fill="#5500FF"/>
<path d="M1737.51 -8.07788C1819.57 81.1733 1886.38 184.356 1935.26 296.61C1865.82 354.331 1783.99 398.273 1692.5 423.468L1577.52 455.133C1512.01 311.88 1399.95 193.088 1255.56 124.648L1737.51 -8.07788Z" fill="#5500FF"/>
<path d="M1273.47 -299.511C1266.34 -301.643 1259.17 -303.702 1251.96 -305.687L1112.74 -344.028L1055.29 -239.424L512.787 -90.0249L912.738 20.1199L1055.29 -239.424L1273.47 -299.511Z" fill="#5500FF"/>
<path d="M112.834 20.1206L241.568 254.511L-229.987 124.647C-196.491 108.771 -161.255 95.6038 -124.458 85.4695L112.834 20.1206Z" fill="#5500FF"/>
<path d="M-711.935 -8.07837L-1149.87 -128.685C-1122.53 38.9587 -1036.88 190.895 -909.693 296.61C-970.619 436.503 -1003.71 590.484 -1003.8 749.145C-1003.83 738.575 -1003.7 727.984 -1003.43 717.375C-1346.28 522.1 -1556.46 139.383 -1545.9 -270.382C-1961.3 -506.946 -2181.97 -1018.66 -2051.27 -1520.28L-1678.03 -1417.47C-1775.28 -1044.34 -1565.49 -662.372 -1209.46 -564.322L-247.896 -299.511C-430.96 -244.797 -588.657 -142.159 -711.935 -8.07837Z" fill="#5500FF"/>
<path d="M-87.1658 -344.027L-301 -733.364L512.787 -509.251L-87.1658 -344.027Z" fill="#5500FF"/>
<path d="M-711.929 1504.72C-793.984 1415.48 -860.79 1312.3 -909.678 1200.06C-840.247 1142.37 -758.441 1098.45 -666.984 1073.26L-551.923 1041.57C-486.403 1184.8 -374.349 1303.56 -229.976 1371.99L-711.929 1504.72Z" fill="#5500FF"/>
<path d="M-247.881 1796.15C-240.756 1798.28 -233.592 1800.34 -226.391 1802.32L-87.1649 1840.66L-29.7197 1736.07L-247.881 1796.15Z" fill="#5500FF"/>
<path d="M512.786 2005.89L1326.57 2230L1112.74 1840.66L512.786 2005.89Z" fill="#5500FF"/>
<path d="M112.839 1476.51L-29.7095 1736.06L512.786 1586.66L112.839 1476.51Z" fill="#5500FF"/>
<path d="M912.731 1476.52L784.094 1242.3L512.786 1167.58L712.803 1112.5L784 1242.13L1255.55 1371.99C1222.05 1387.87 1186.82 1401.03 1150.03 1411.16L912.731 1476.52Z" fill="#5500FF"/>
<path d="M1577.49 1041.57C1603.77 984.123 1622.57 922.74 1632.96 859.094L1273.92 957.969L1577.49 1041.57Z" fill="#5500FF"/>
<path d="M512.804 748.351L1273.93 538.742L712.767 384.202L512.785 748.317L512.804 748.351Z" fill="#5500FF"/>
<path d="M-248.353 538.742L-607.398 637.622C-597.015 573.971 -578.227 512.584 -551.953 455.132L-248.353 538.742Z" fill="#5500FF"/>
<path d="M312.803 384.203L512.786 329.128L241.526 254.425L312.803 384.203Z" fill="#5500FF"/>
<path d="M512.767 748.351L512.787 748.356L512.759 748.364L512.767 748.351Z" fill="#5500FF"/>
<path d="M312.768 1112.5L-248.351 957.969L512.759 748.364L312.768 1112.5Z" fill="#5500FF"/>
<path d="M2703.6 -1417.47L3076.83 -1520.28C3207.54 -1018.66 2986.86 -506.946 2571.47 -270.382C2582.03 139.383 2371.84 522.1 2029 717.375C2029.26 727.733 2029.39 738.074 2029.37 748.395C2029.18 589.999 1996.09 436.281 1935.26 296.608C2062.45 190.893 2148.09 38.9573 2175.44 -128.685L1737.51 -8.07959C1614.23 -142.16 1456.53 -244.798 1273.47 -299.513L2235.03 -564.322C2591.06 -662.372 2800.85 -1044.34 2703.6 -1417.47Z" fill="#FF00FF"/>
<path d="M1112.74 -344.03L1326.57 -733.365L512.787 -509.253L1112.74 -344.03Z" fill="#FF00FF"/>
<path d="M-87.166 -344.029L-226.39 -305.688C-233.597 -303.703 -240.766 -301.644 -247.897 -299.513L-29.7161 -239.427L112.834 20.1189L512.786 -90.0264L-29.7161 -239.427L-87.166 -344.029Z" fill="#FF00FF"/>
<path d="M912.736 20.1179L784.001 254.511L1255.56 124.646C1222.06 108.769 1186.83 95.6013 1150.03 85.467L912.736 20.1179Z" fill="#FF00FF"/>
<path d="M1577.52 455.131L1273.92 538.741L1632.97 637.62C1622.58 573.969 1603.8 512.583 1577.52 455.131Z" fill="#FF00FF"/>
<path d="M712.766 384.2L784.042 254.424L512.785 329.127L712.766 384.2Z" fill="#FF00FF"/>
<path d="M312.803 384.201L512.785 748.314L512.765 748.349L-248.353 538.741L312.803 384.201Z" fill="#FF00FF"/>
<path d="M-551.954 455.13C-486.441 311.877 -374.379 193.085 -229.988 124.646L-711.936 -8.08032C-793.996 81.1707 -860.805 184.354 -909.694 296.607C-840.249 354.329 -758.419 398.271 -666.933 423.466L-551.954 455.13Z" fill="#FF00FF"/>
<path d="M-229.976 1371.99C-196.484 1387.87 -161.253 1401.03 -124.459 1411.16L112.837 1476.51L241.474 1242.3L512.786 1167.58L312.766 1112.5L241.568 1242.13L-229.976 1371.99Z" fill="#FF00FF"/>
<path d="M-248.352 957.968L-551.923 1041.57C-578.203 984.122 -596.997 922.739 -607.387 859.091L-248.352 957.968Z" fill="#FF00FF"/>
<path d="M512.786 748.355L512.804 748.35L512.811 748.362L512.786 748.355Z" fill="#FF00FF"/>
<path d="M1273.92 957.968L512.811 748.362L712.803 1112.5L1273.92 957.968Z" fill="#FF00FF"/>
<path d="M1577.49 1041.57C1511.97 1184.8 1399.92 1303.56 1255.55 1371.99L1737.5 1504.72C1819.55 1415.47 1886.36 1312.3 1935.25 1200.06C1865.82 1142.36 1784.01 1098.44 1692.55 1073.26L1577.49 1041.57Z" fill="#FF00FF"/>
<path d="M1273.45 1796.15L1055.29 1736.07L1112.74 1840.66L1251.96 1802.32C1259.16 1800.34 1266.33 1798.28 1273.45 1796.15Z" fill="#FF00FF"/>
<path d="M512.785 2005.88L-87.1663 1840.66L-301.001 2230L512.785 2005.88Z" fill="#FF00FF"/>
<path d="M912.731 1476.51L512.785 1586.66L1055.28 1736.06L912.731 1476.51Z" fill="#FF00FF"/>
<path d="M-1003.8 748.987C-1003.5 907.115 -970.414 1060.56 -909.676 1200.01C-840.245 1142.32 -758.438 1098.4 -666.981 1073.21L-551.92 1041.52C-578.2 984.075 -596.994 922.692 -607.384 859.045L-248.35 957.921L512.762 748.315L312.77 1112.45L512.788 1167.53L712.806 1112.45L512.813 748.315L1273.93 957.921L1632.96 859.045C1622.57 922.692 1603.78 984.075 1577.5 1041.52L1692.56 1073.21C1784.01 1098.4 1865.82 1142.32 1935.25 1200.01C1996 1060.54 2029.08 907.061 2029.38 748.903C2029.26 590.311 1996.17 436.398 1935.27 296.562C1865.82 354.283 1783.99 398.224 1692.51 423.419L1577.53 455.084C1603.8 512.536 1622.59 573.922 1632.97 637.573L1273.93 538.694L512.807 748.303L512.813 748.315L512.788 748.308L512.762 748.315L512.769 748.303L-248.351 538.694L-607.395 637.573C-597.012 573.922 -578.225 512.536 -551.95 455.084L-666.93 423.419C-758.416 398.224 -840.245 354.282 -909.69 296.561C-970.602 436.423 -1003.69 590.365 -1003.8 748.987Z" fill="#FFFF00"/>
<path d="M-711.932 -8.12683L-229.985 124.599C-196.489 108.722 -161.253 95.5551 -124.455 85.4209L112.837 20.0718L-29.713 -239.473L512.789 -90.0732L1055.29 -239.473L1112.74 -48.134H1225.24C1262.04 -37.9998 1222.07 108.722 1255.56 124.599L1737.51 -8.12634C1614.23 -142.207 1456.53 -244.845 1273.47 -299.56L1055.29 -239.473L1112.74 -344.076L512.789 -509.3L-87.163 -344.076L-29.713 -239.473L-247.894 -299.56C-430.958 -244.845 -588.655 -142.207 -711.932 -8.12683Z" fill="#FFFF00"/>
<path d="M312.806 384.154L512.788 748.268L712.77 384.154L512.788 329.08L312.806 384.154Z" fill="#FFFF00"/>
<mask id="mask0_1554_155364" style="mask-type:alpha" maskUnits="userSpaceOnUse" x="-31" y="19" width="166" height="41">
<path d="M112.796 19.9771C104.177 22.3801 62.3387 33.6979 -30.1384 59.3304H134.291C127 45.0692 116.962 27.7934 112.796 19.9771Z" fill="black"/>
</mask>
<g mask="url(#mask0_1554_155364)">
<g style="mix-blend-mode:multiply">
<g clip-path="url(#clip4_1554_155364)">
<g clip-path="url(#clip5_1554_155364)">
<rect width="405.346" height="335.626" transform="translate(-388.601 -64.4741)" fill="white"/>
<rect width="590.768" height="649.057" transform="translate(-281.5 -331.483) rotate(30)" fill="white"/>
<rect x="-313.008" y="-276.91" width="590.768" height="6.30152" transform="rotate(30 -313.008 -276.91)" fill="black"/>
<rect x="-319.31" y="-265.995" width="590.768" height="6.30152" transform="rotate(30 -319.31 -265.995)" fill="black"/>
<rect x="-325.611" y="-255.081" width="590.768" height="6.30152" transform="rotate(30 -325.611 -255.081)" fill="black"/>
<rect x="-331.913" y="-244.166" width="590.768" height="6.30152" transform="rotate(30 -331.913 -244.166)" fill="black"/>
<rect x="-338.214" y="-233.251" width="590.768" height="6.30152" transform="rotate(30 -338.214 -233.251)" fill="black"/>
<rect x="-344.516" y="-222.337" width="590.768" height="6.30152" transform="rotate(30 -344.516 -222.337)" fill="black"/>
<rect x="-350.817" y="-211.422" width="590.768" height="6.30152" transform="rotate(30 -350.817 -211.422)" fill="black"/>
<rect x="-357.119" y="-200.508" width="590.768" height="6.30152" transform="rotate(30 -357.119 -200.508)" fill="black"/>
<rect x="-363.42" y="-189.593" width="590.768" height="6.30152" transform="rotate(30 -363.42 -189.593)" fill="black"/>
<rect x="-369.722" y="-178.679" width="590.768" height="6.30152" transform="rotate(30 -369.722 -178.679)" fill="black"/>
<rect x="-376.023" y="-167.764" width="590.768" height="6.30152" transform="rotate(30 -376.023 -167.764)" fill="black"/>
<rect x="-382.325" y="-156.85" width="590.768" height="6.30152" transform="rotate(30 -382.325 -156.85)" fill="black"/>
<rect x="-388.626" y="-145.935" width="590.768" height="6.30152" transform="rotate(30 -388.626 -145.935)" fill="black"/>
<rect x="-394.928" y="-135.021" width="590.768" height="6.30152" transform="rotate(30 -394.928 -135.021)" fill="black"/>
<rect x="-401.229" y="-124.106" width="590.768" height="6.30152" transform="rotate(30 -401.229 -124.106)" fill="black"/>
<rect x="-407.531" y="-113.191" width="590.768" height="6.30152" transform="rotate(30 -407.531 -113.191)" fill="black"/>
<rect x="-413.833" y="-102.277" width="590.768" height="6.30152" transform="rotate(30 -413.833 -102.277)" fill="black"/>
<rect x="-420.134" y="-91.3623" width="590.768" height="6.30152" transform="rotate(30 -420.134 -91.3623)" fill="black"/>
<rect x="-426.436" y="-80.4478" width="590.768" height="6.30152" transform="rotate(30 -426.436 -80.4478)" fill="black"/>
<rect x="-432.737" y="-69.5332" width="590.768" height="6.30152" transform="rotate(30 -432.737 -69.5332)" fill="black"/>
<rect x="-439.039" y="-58.6187" width="590.768" height="6.30152" transform="rotate(30 -439.039 -58.6187)" fill="black"/>
<rect x="-445.34" y="-47.7041" width="590.768" height="6.30152" transform="rotate(30 -445.34 -47.7041)" fill="black"/>
<rect x="-451.642" y="-36.7896" width="590.768" height="6.30152" transform="rotate(30 -451.642 -36.7896)" fill="black"/>
<rect x="-457.943" y="-25.875" width="590.768" height="6.30152" transform="rotate(30 -457.943 -25.875)" fill="black"/>
<rect x="-464.245" y="-14.9604" width="590.768" height="6.30152" transform="rotate(30 -464.245 -14.9604)" fill="black"/>
<rect x="-470.546" y="-4.0459" width="590.768" height="6.30152" transform="rotate(30 -470.546 -4.0459)" fill="black"/>
<rect x="-476.848" y="6.86865" width="590.768" height="6.30152" transform="rotate(30 -476.848 6.86865)" fill="black"/>
<rect x="-483.149" y="17.7832" width="590.768" height="6.30152" transform="rotate(30 -483.149 17.7832)" fill="black"/>
<rect x="-489.451" y="28.6978" width="590.768" height="6.30152" transform="rotate(30 -489.451 28.6978)" fill="black"/>
<rect x="-495.752" y="39.6123" width="590.768" height="6.30152" transform="rotate(30 -495.752 39.6123)" fill="black"/>
<g style="mix-blend-mode:difference">
<path fill-rule="evenodd" clip-rule="evenodd" d="M15.9851 -64.5254L-42.6423 -64.5254L-135.303 27.1775C-163.266 54.8521 -208.603 54.8521 -236.567 27.1775L-329.227 -64.5254L-387.854 -64.5254L-265.88 56.1881C-221.727 99.8849 -150.142 99.8849 -105.988 56.1881L15.9851 -64.5254ZM-388.601 271.152L-329.974 271.152L-236.561 178.703C-208.598 151.028 -163.261 151.028 -135.297 178.703L-41.8828 271.152L16.7447 271.152L-105.982 149.693C-150.136 105.996 -221.722 105.996 -265.874 149.693L-388.601 271.152Z" fill="white"/>
</g>
</g>
<g clip-path="url(#clip6_1554_155364)">
<rect width="405.346" height="335.626" transform="matrix(-1 -4.65781e-09 4.60439e-09 1 422.091 -64.4741)" fill="white"/>
<rect width="590.768" height="649.057" transform="matrix(-0.866025 0.5 0.5 0.866025 314.99 -331.483)" fill="white"/>
<rect width="590.768" height="6.30152" transform="matrix(-0.866025 0.5 0.5 0.866025 346.498 -276.91)" fill="black"/>
<rect width="590.768" height="6.30152" transform="matrix(-0.866025 0.5 0.5 0.866025 352.799 -265.996)" fill="black"/>
<rect width="590.768" height="6.30152" transform="matrix(-0.866025 0.5 0.5 0.866025 359.101 -255.081)" fill="black"/>
<rect width="590.768" height="6.30152" transform="matrix(-0.866025 0.5 0.5 0.866025 365.402 -244.167)" fill="black"/>
<rect width="590.768" height="6.30152" transform="matrix(-0.866025 0.5 0.5 0.866025 371.704 -233.252)" fill="black"/>
<rect width="590.768" height="6.30152" transform="matrix(-0.866025 0.5 0.5 0.866025 378.005 -222.337)" fill="black"/>
<rect width="590.768" height="6.30152" transform="matrix(-0.866025 0.5 0.5 0.866025 384.307 -211.423)" fill="black"/>
<rect width="590.768" height="6.30152" transform="matrix(-0.866025 0.5 0.5 0.866025 390.609 -200.508)" fill="black"/>
<rect width="590.768" height="6.30152" transform="matrix(-0.866025 0.5 0.5 0.866025 396.91 -189.594)" fill="black"/>
<rect width="590.768" height="6.30152" transform="matrix(-0.866025 0.5 0.5 0.866025 403.212 -178.679)" fill="black"/>
<rect width="590.768" height="6.30152" transform="matrix(-0.866025 0.5 0.5 0.866025 409.513 -167.765)" fill="black"/>
<rect width="590.768" height="6.30152" transform="matrix(-0.866025 0.5 0.5 0.866025 415.815 -156.85)" fill="black"/>
<rect width="590.768" height="6.30152" transform="matrix(-0.866025 0.5 0.5 0.866025 422.116 -145.936)" fill="black"/>
<rect width="590.768" height="6.30152" transform="matrix(-0.866025 0.5 0.5 0.866025 428.418 -135.021)" fill="black"/>
<rect width="590.768" height="6.30152" transform="matrix(-0.866025 0.5 0.5 0.866025 434.719 -124.106)" fill="black"/>
<rect width="590.768" height="6.30152" transform="matrix(-0.866025 0.5 0.5 0.866025 441.021 -113.192)" fill="black"/>
<rect width="590.768" height="6.30152" transform="matrix(-0.866025 0.5 0.5 0.866025 447.322 -102.277)" fill="black"/>
<rect width="590.768" height="6.30152" transform="matrix(-0.866025 0.5 0.5 0.866025 453.624 -91.3628)" fill="black"/>
<rect width="590.768" height="6.30152" transform="matrix(-0.866025 0.5 0.5 0.866025 459.925 -80.4482)" fill="black"/>
<rect width="590.768" height="6.30152" transform="matrix(-0.866025 0.5 0.5 0.866025 466.227 -69.5337)" fill="black"/>
<rect width="590.768" height="6.30152" transform="matrix(-0.866025 0.5 0.5 0.866025 472.528 -58.6191)" fill="black"/>
<rect width="590.768" height="6.30152" transform="matrix(-0.866025 0.5 0.5 0.866025 478.83 -47.7046)" fill="black"/>
<rect width="590.768" height="6.30152" transform="matrix(-0.866025 0.5 0.5 0.866025 485.131 -36.79)" fill="black"/>
<rect width="590.768" height="6.30152" transform="matrix(-0.866025 0.5 0.5 0.866025 491.433 -25.8755)" fill="black"/>
<rect width="590.768" height="6.30152" transform="matrix(-0.866025 0.5 0.5 0.866025 497.734 -14.9609)" fill="black"/>
<rect width="590.768" height="6.30152" transform="matrix(-0.866025 0.5 0.5 0.866025 504.036 -4.04639)" fill="black"/>
<rect width="590.768" height="6.30152" transform="matrix(-0.866025 0.5 0.5 0.866025 510.337 6.86816)" fill="black"/>
<rect width="590.768" height="6.30152" transform="matrix(-0.866025 0.5 0.5 0.866025 516.639 17.7827)" fill="black"/>
<rect width="590.768" height="6.30152" transform="matrix(-0.866025 0.5 0.5 0.866025 522.94 28.6973)" fill="black"/>
<rect width="590.768" height="6.30152" transform="matrix(-0.866025 0.5 0.5 0.866025 529.242 39.6118)" fill="black"/>
<g style="mix-blend-mode:difference">
<path fill-rule="evenodd" clip-rule="evenodd" d="M17.5042 -64.5254L76.1317 -64.5254L168.792 27.1775C196.756 54.8521 242.093 54.8521 270.056 27.1775L362.716 -64.5254L421.343 -64.5254L299.37 56.1881C255.217 99.8849 183.631 99.8849 139.478 56.1881L17.5042 -64.5254ZM422.091 271.152L363.464 271.152L270.05 178.703C242.087 151.028 196.75 151.028 168.786 178.703L75.3722 271.152L16.7447 271.152L139.472 149.693C183.626 105.996 255.211 105.996 299.364 149.693L422.091 271.152Z" fill="white"/>
</g>
</g>
</g>
</g>
</g>
</g>
</g>
<defs>
<clipPath id="clip0_1554_155364">
<rect width="1024" height="46" fill="white"/>
</clipPath>
<clipPath id="clip1_1554_155364">
<rect width="1312" height="333" fill="white" transform="translate(-143.5 -99)"/>
</clipPath>
<clipPath id="clip2_1554_155364">
<rect width="542.09" height="1053.84" fill="white" transform="translate(1456.58 699.996) rotate(-180)"/>
</clipPath>
<clipPath id="clip3_1554_155364">
<rect width="476.564" height="394.595" fill="white" transform="translate(766.229 -89.1938)"/>
</clipPath>
<clipPath id="clip4_1554_155364">
<rect width="461.08" height="896.357" fill="white" transform="translate(198.587 606.779) rotate(-180)"/>
</clipPath>
<clipPath id="clip5_1554_155364">
<rect width="405.346" height="335.626" fill="white" transform="translate(-388.601 -64.4741)"/>
</clipPath>
<clipPath id="clip6_1554_155364">
<rect width="405.346" height="335.626" fill="white" transform="matrix(-1 -4.65781e-09 4.60439e-09 1 422.091 -64.4741)"/>
</clipPath>
</defs>
</svg>
