<svg width="1440" height="46" viewBox="0 0 1440 46" fill="none" xmlns="http://www.w3.org/2000/svg">
<g clip-path="url(#clip0_1554_152665)">
<rect width="1440" height="46" fill="#111112"/>
<g clip-path="url(#clip1_1554_152665)">
<rect width="1440" height="347" transform="translate(0 -100)" fill="#210085"/>
<g style="mix-blend-mode:multiply">
<g clip-path="url(#clip2_1554_152665)">
<g clip-path="url(#clip3_1554_152665)">
<rect width="476.564" height="394.595" transform="translate(1065.84 -56.6025)" fill="white"/>
<rect width="694.563" height="763.095" transform="translate(1191.75 -370.523) rotate(30)" fill="white"/>
<rect x="1176.94" y="-344.859" width="694.564" height="7.40868" transform="rotate(30 1176.94 -344.859)" fill="black"/>
<rect x="1169.53" y="-332.027" width="694.564" height="7.40868" transform="rotate(30 1169.53 -332.027)" fill="black"/>
<rect x="1162.12" y="-319.195" width="694.564" height="7.40868" transform="rotate(30 1162.12 -319.195)" fill="black"/>
<rect x="1154.71" y="-306.363" width="694.564" height="7.40868" transform="rotate(30 1154.71 -306.363)" fill="black"/>
<rect x="1147.3" y="-293.53" width="694.564" height="7.40868" transform="rotate(30 1147.3 -293.53)" fill="black"/>
<rect x="1139.89" y="-280.698" width="694.564" height="7.40868" transform="rotate(30 1139.89 -280.698)" fill="black"/>
<rect x="1132.48" y="-267.866" width="694.564" height="7.40868" transform="rotate(30 1132.48 -267.866)" fill="black"/>
<rect x="1125.07" y="-255.034" width="694.564" height="7.40868" transform="rotate(30 1125.07 -255.034)" fill="black"/>
<rect x="1117.67" y="-242.202" width="694.564" height="7.40868" transform="rotate(30 1117.67 -242.202)" fill="black"/>
<rect x="1110.26" y="-229.369" width="694.564" height="7.40868" transform="rotate(30 1110.26 -229.369)" fill="black"/>
<rect x="1102.85" y="-216.537" width="694.564" height="7.40868" transform="rotate(30 1102.85 -216.537)" fill="black"/>
<rect x="1095.44" y="-203.705" width="694.564" height="7.40868" transform="rotate(30 1095.44 -203.705)" fill="black"/>
<rect x="1088.03" y="-190.873" width="694.564" height="7.40868" transform="rotate(30 1088.03 -190.873)" fill="black"/>
<rect x="1080.62" y="-178.041" width="694.564" height="7.40868" transform="rotate(30 1080.62 -178.041)" fill="black"/>
<rect x="1073.21" y="-165.208" width="694.564" height="7.40868" transform="rotate(30 1073.21 -165.208)" fill="black"/>
<rect x="1065.81" y="-152.376" width="694.564" height="7.40868" transform="rotate(30 1065.81 -152.376)" fill="black"/>
<rect x="1058.4" y="-139.544" width="694.564" height="7.40868" transform="rotate(30 1058.4 -139.544)" fill="black"/>
<rect x="1050.99" y="-126.711" width="694.564" height="7.40868" transform="rotate(30 1050.99 -126.711)" fill="black"/>
<rect x="1043.58" y="-113.879" width="694.564" height="7.40868" transform="rotate(30 1043.58 -113.879)" fill="black"/>
<rect x="1036.17" y="-101.047" width="694.564" height="7.40868" transform="rotate(30 1036.17 -101.047)" fill="black"/>
<rect x="1028.76" y="-88.2148" width="694.564" height="7.40868" transform="rotate(30 1028.76 -88.2148)" fill="black"/>
<rect x="1021.35" y="-75.3823" width="694.564" height="7.40868" transform="rotate(30 1021.35 -75.3823)" fill="black"/>
<rect x="1013.94" y="-62.5503" width="694.564" height="7.40868" transform="rotate(30 1013.94 -62.5503)" fill="black"/>
<rect x="1006.54" y="-49.7178" width="694.564" height="7.40868" transform="rotate(30 1006.54 -49.7178)" fill="black"/>
<rect x="999.127" y="-36.8857" width="694.564" height="7.40868" transform="rotate(30 999.127 -36.8857)" fill="black"/>
<rect x="991.719" y="-24.0532" width="694.564" height="7.40868" transform="rotate(30 991.719 -24.0532)" fill="black"/>
<rect x="984.31" y="-11.2212" width="694.564" height="7.40868" transform="rotate(30 984.31 -11.2212)" fill="black"/>
<rect x="976.901" y="1.61084" width="694.564" height="7.40868" transform="rotate(30 976.901 1.61084)" fill="black"/>
<rect x="969.493" y="14.4434" width="694.564" height="7.40868" transform="rotate(30 969.493 14.4434)" fill="black"/>
<rect x="962.084" y="27.2754" width="694.564" height="7.40868" transform="rotate(30 962.084 27.2754)" fill="black"/>
<rect x="954.675" y="40.1079" width="694.564" height="7.40868" transform="rotate(30 954.675 40.1079)" fill="black"/>
<g style="mix-blend-mode:difference">
<path fill-rule="evenodd" clip-rule="evenodd" d="M1541.51 -56.6626H1472.58L1363.64 51.1522C1330.76 83.6891 1277.46 83.6891 1244.58 51.1522L1135.64 -56.6626H1066.71L1210.12 85.2598C1262.03 136.634 1346.19 136.634 1398.1 85.2598L1541.51 -56.6626ZM1065.84 337.992H1134.76L1244.59 229.3C1277.46 196.763 1330.77 196.763 1363.64 229.3L1473.47 337.992H1542.4L1398.11 195.193C1346.2 143.819 1262.04 143.819 1210.12 195.193L1065.84 337.992Z" fill="white"/>
</g>
</g>
</g>
</g>
<path d="M2384.86 783.709C2384.87 794.202 2384.73 804.714 2384.45 815.244C2760.76 1018.71 2991.48 1417.51 2979.9 1844.51C3435.79 2091.03 3677.97 2624.24 3534.51 3146.93L3124.87 3039.79C3231.6 2650.97 3001.34 2252.94 2610.58 2150.77L1555.19 1874.83C1756.12 1817.81 1929.21 1710.86 2064.51 1571.14L2545.22 1696.83C2515.19 1522.14 2421.17 1363.82 2281.55 1253.68C2348.21 1108.37 2384.52 948.478 2384.86 783.709Z" fill="#5500FF"/>
<path d="M2064.52 -5.25513C2154.58 87.7483 2227.91 195.269 2281.57 312.242C2205.35 372.39 2115.54 418.179 2015.13 444.434L1888.93 477.43C1817.02 328.154 1694.03 204.368 1535.55 133.05L2064.52 -5.25513Z" fill="#5500FF"/>
<path d="M1555.21 -308.941C1547.38 -311.162 1539.51 -313.308 1531.6 -315.377L1378.8 -355.33L1315.74 -246.328L720.315 -90.6475L1159.29 24.1282L1315.74 -246.328L1555.21 -308.941Z" fill="#5500FF"/>
<path d="M281.342 24.1287L422.636 268.374L-94.9246 133.05C-58.1606 116.506 -19.4875 102.785 20.9006 92.2251L281.342 24.1287Z" fill="#5500FF"/>
<path d="M-623.892 -5.25586L-1104.56 -130.933C-1074.54 43.759 -980.539 202.083 -840.943 312.242C-907.813 458.017 -944.135 618.472 -944.237 783.802C-944.26 772.788 -944.123 761.752 -943.824 750.698C-1320.12 547.212 -1550.81 148.405 -1539.22 -278.587C-1995.14 -525.096 -2237.35 -1058.33 -2093.89 -1581.04L-1684.24 -1473.9C-1790.97 -1085.08 -1560.72 -687.057 -1169.96 -584.885L-114.581 -308.941C-315.505 -251.927 -488.587 -144.973 -623.892 -5.25586Z" fill="#5500FF"/>
<path d="M61.8306 -355.329L-172.866 -761.034L720.315 -527.499L61.8306 -355.329Z" fill="#5500FF"/>
<path d="M-623.886 1571.14C-713.945 1478.15 -787.269 1370.64 -840.927 1253.68C-764.722 1193.56 -674.935 1147.79 -574.555 1121.54L-448.269 1088.52C-376.356 1237.77 -253.371 1361.53 -94.9122 1432.84L-623.886 1571.14Z" fill="#5500FF"/>
<path d="M-114.564 1874.83C-106.744 1877.04 -98.8813 1879.19 -90.9772 1881.25L61.8315 1921.21L124.881 1812.22L-114.564 1874.83Z" fill="#5500FF"/>
<path d="M720.314 2093.38L1613.49 2326.91L1378.79 1921.21L720.314 2093.38Z" fill="#5500FF"/>
<path d="M281.348 1541.75L124.892 1812.21L720.314 1656.53L281.348 1541.75Z" fill="#5500FF"/>
<path d="M1159.28 1541.75L1018.09 1297.69L720.314 1219.83L939.845 1162.43L1017.99 1297.51L1535.54 1432.84C1498.78 1449.38 1460.11 1463.1 1419.73 1473.65L1159.28 1541.75Z" fill="#5500FF"/>
<path d="M1888.9 1088.52C1917.74 1028.66 1938.37 964.697 1949.77 898.374L1555.71 1001.41L1888.9 1088.52Z" fill="#5500FF"/>
<path d="M720.334 782.976L1555.71 564.554L939.805 403.517L720.313 782.94L720.334 782.976Z" fill="#5500FF"/>
<path d="M-115.082 564.554L-509.156 667.591C-497.76 601.264 -477.139 537.296 -448.302 477.429L-115.082 564.554Z" fill="#5500FF"/>
<path d="M500.821 403.517L720.314 346.128L422.589 268.283L500.821 403.517Z" fill="#5500FF"/>
<path d="M720.293 782.975L720.315 782.981L720.285 782.989L720.293 782.975Z" fill="#5500FF"/>
<path d="M500.782 1162.43L-115.08 1001.41L720.285 782.989L500.782 1162.43Z" fill="#5500FF"/>
<path d="M3124.87 -1473.9L3534.51 -1581.04C3677.97 -1058.33 3435.77 -525.096 2979.84 -278.587C2991.44 148.405 2760.74 547.213 2384.45 750.698C2384.74 761.491 2384.88 772.267 2384.86 783.021C2384.65 617.966 2348.33 457.786 2281.57 312.24C2421.16 202.081 2515.17 43.7578 2545.18 -130.933L2064.52 -5.25684C1929.21 -144.974 1756.13 -251.927 1555.21 -308.942L2610.58 -584.884C3001.34 -687.056 3231.6 -1085.08 3124.87 -1473.9Z" fill="#FF00FF"/>
<path d="M1378.79 -355.331L1613.49 -761.034L720.315 -527.5L1378.79 -355.331Z" fill="#FF00FF"/>
<path d="M61.8303 -355.33L-90.9764 -315.377C-98.8866 -313.309 -106.755 -311.164 -114.581 -308.943L124.885 -246.331L281.342 24.1272L720.314 -90.6487L124.885 -246.331L61.8303 -355.33Z" fill="#FF00FF"/>
<path d="M1159.28 24.1262L1017.99 268.374L1535.55 133.049C1498.79 116.504 1460.11 102.783 1419.73 92.2227L1159.28 24.1262Z" fill="#FF00FF"/>
<path d="M1888.93 477.428L1555.71 564.553L1949.78 667.589C1938.39 601.262 1917.77 537.295 1888.93 477.428Z" fill="#FF00FF"/>
<path d="M939.804 403.515L1018.03 268.283L720.313 346.127L939.804 403.515Z" fill="#FF00FF"/>
<path d="M500.821 403.516L720.313 782.937L720.292 782.974L-115.083 564.553L500.821 403.516Z" fill="#FF00FF"/>
<path d="M-448.303 477.427C-376.398 328.152 -253.403 204.365 -94.9257 133.048L-623.893 -5.25757C-713.959 87.7458 -787.286 195.267 -840.944 312.24C-764.724 372.388 -674.911 418.177 -574.5 444.431L-448.303 477.427Z" fill="#FF00FF"/>
<path d="M-94.9126 1432.83C-58.1531 1449.38 -19.4844 1463.09 20.8984 1473.65L281.346 1541.75L422.532 1297.69L720.314 1219.83L500.78 1162.43L422.636 1297.51L-94.9126 1432.83Z" fill="#FF00FF"/>
<path d="M-115.081 1001.41L-448.269 1088.52C-477.113 1028.66 -497.74 964.695 -509.144 898.372L-115.081 1001.41Z" fill="#FF00FF"/>
<path d="M720.314 782.98L720.334 782.974L720.341 782.987L720.314 782.98Z" fill="#FF00FF"/>
<path d="M1555.71 1001.41L720.341 782.987L939.845 1162.43L1555.71 1001.41Z" fill="#FF00FF"/>
<path d="M1888.89 1088.52C1816.98 1237.77 1694 1361.53 1535.54 1432.83L2064.51 1571.14C2154.57 1478.15 2227.89 1370.64 2281.55 1253.67C2205.35 1193.55 2115.56 1147.79 2015.18 1121.54L1888.89 1088.52Z" fill="#FF00FF"/>
<path d="M1555.19 1874.82L1315.74 1812.22L1378.79 1921.21L1531.6 1881.26C1539.51 1879.19 1547.37 1877.04 1555.19 1874.82Z" fill="#FF00FF"/>
<path d="M720.313 2093.38L61.8301 1921.21L-172.866 2326.91L720.313 2093.38Z" fill="#FF00FF"/>
<path d="M1159.28 1541.75L720.313 1656.53L1315.73 1812.21L1159.28 1541.75Z" fill="#FF00FF"/>
<path d="M-944.234 783.638C-943.898 948.414 -907.588 1108.31 -840.924 1253.63C-764.72 1193.51 -674.932 1147.74 -574.552 1121.49L-448.266 1088.47C-477.11 1028.61 -497.737 964.646 -509.14 898.323L-115.078 1001.36L720.288 782.938L500.784 1162.38L720.317 1219.78L939.848 1162.38L720.344 782.938L1555.71 1001.36L1949.77 898.323C1938.37 964.646 1917.74 1028.61 1888.9 1088.47L2015.18 1121.49C2115.56 1147.74 2205.35 1193.51 2281.56 1253.63C2348.23 1108.29 2384.54 948.358 2384.87 783.551C2384.73 618.291 2348.42 457.908 2281.57 312.192C2205.35 372.34 2115.54 418.128 2015.13 444.383L1888.93 477.379C1917.77 537.246 1938.39 601.213 1949.79 667.54L1555.71 564.504L720.337 782.925L720.344 782.938L720.317 782.931L720.288 782.938L720.295 782.925L-115.08 564.504L-509.153 667.54C-497.757 601.213 -477.136 537.246 -448.299 477.379L-574.497 444.383C-674.908 418.128 -764.72 372.339 -840.94 312.192C-907.794 457.933 -944.115 618.348 -944.234 783.638Z" fill="#FFFF00"/>
<path d="M-623.889 -5.30615L-94.9224 133C-58.1583 116.455 -19.4847 102.735 20.9037 92.1744L281.345 24.0779L124.889 -246.379L720.317 -90.6978L1315.74 -246.379L1378.8 -46.9954H1502.28C1542.66 -36.4351 1498.79 116.455 1535.56 133L2064.52 -5.30566C1929.22 -145.023 1756.14 -251.976 1555.21 -308.991L1315.74 -246.379L1378.8 -355.379L720.317 -527.549L61.8336 -355.379L124.889 -246.379L-114.579 -308.992C-315.503 -251.977 -488.584 -145.023 -623.889 -5.30615Z" fill="#FFFF00"/>
<path d="M500.824 403.467L720.316 782.889L939.808 403.467L720.316 346.078L500.824 403.467Z" fill="#FFFF00"/>
<mask id="mask0_1554_152665" style="mask-type:alpha" maskUnits="userSpaceOnUse" x="196" y="23" width="99" height="24">
<path d="M281.344 23.979C276.21 25.3378 251.292 31.7375 196.214 46.2316H294.146C289.803 38.1675 283.825 28.3988 281.344 23.979Z" fill="black"/>
</mask>
<g mask="url(#mask0_1554_152665)">
<g style="mix-blend-mode:multiply">
<g clip-path="url(#clip4_1554_152665)">
<g clip-path="url(#clip5_1554_152665)">
<rect width="405.346" height="335.626" transform="matrix(-1 0 0 1 598.965 -35.8018)" fill="white"/>
<rect width="590.768" height="649.057" transform="matrix(-0.866025 0.5 0.5 0.866025 491.865 -302.811)" fill="white"/>
<rect width="590.768" height="6.30152" transform="matrix(-0.866025 0.5 0.5 0.866025 510.769 -270.067)" fill="black"/>
<rect width="590.768" height="6.30152" transform="matrix(-0.866025 0.5 0.5 0.866025 517.071 -259.152)" fill="black"/>
<rect width="590.768" height="6.30152" transform="matrix(-0.866025 0.5 0.5 0.866025 523.372 -248.237)" fill="black"/>
<rect width="590.768" height="6.30152" transform="matrix(-0.866025 0.5 0.5 0.866025 529.674 -237.323)" fill="black"/>
<rect width="590.768" height="6.30152" transform="matrix(-0.866025 0.5 0.5 0.866025 535.975 -226.409)" fill="black"/>
<rect width="590.768" height="6.30152" transform="matrix(-0.866025 0.5 0.5 0.866025 542.277 -215.494)" fill="black"/>
<rect width="590.768" height="6.30152" transform="matrix(-0.866025 0.5 0.5 0.866025 548.578 -204.58)" fill="black"/>
<rect width="590.768" height="6.30152" transform="matrix(-0.866025 0.5 0.5 0.866025 554.88 -193.665)" fill="black"/>
<rect width="590.768" height="6.30152" transform="matrix(-0.866025 0.5 0.5 0.866025 561.181 -182.75)" fill="black"/>
<rect width="590.768" height="6.30152" transform="matrix(-0.866025 0.5 0.5 0.866025 567.483 -171.835)" fill="black"/>
<rect width="590.768" height="6.30152" transform="matrix(-0.866025 0.5 0.5 0.866025 573.784 -160.921)" fill="black"/>
<rect width="590.768" height="6.30152" transform="matrix(-0.866025 0.5 0.5 0.866025 580.086 -150.006)" fill="black"/>
<rect width="590.768" height="6.30152" transform="matrix(-0.866025 0.5 0.5 0.866025 586.387 -139.092)" fill="black"/>
<rect width="590.768" height="6.30152" transform="matrix(-0.866025 0.5 0.5 0.866025 592.689 -128.177)" fill="black"/>
<rect width="590.768" height="6.30152" transform="matrix(-0.866025 0.5 0.5 0.866025 598.99 -117.263)" fill="black"/>
<rect width="590.768" height="6.30152" transform="matrix(-0.866025 0.5 0.5 0.866025 605.292 -106.348)" fill="black"/>
<rect width="590.768" height="6.30152" transform="matrix(-0.866025 0.5 0.5 0.866025 611.593 -95.4336)" fill="black"/>
<rect width="590.768" height="6.30152" transform="matrix(-0.866025 0.5 0.5 0.866025 617.895 -84.519)" fill="black"/>
<rect width="590.768" height="6.30152" transform="matrix(-0.866025 0.5 0.5 0.866025 624.196 -73.6045)" fill="black"/>
<rect width="590.768" height="6.30152" transform="matrix(-0.866025 0.5 0.5 0.866025 630.498 -62.6899)" fill="black"/>
<rect width="590.768" height="6.30152" transform="matrix(-0.866025 0.5 0.5 0.866025 636.799 -51.7754)" fill="black"/>
<rect width="590.768" height="6.30152" transform="matrix(-0.866025 0.5 0.5 0.866025 643.101 -40.8608)" fill="black"/>
<rect width="590.768" height="6.30152" transform="matrix(-0.866025 0.5 0.5 0.866025 649.402 -29.9468)" fill="black"/>
<rect width="590.768" height="6.30152" transform="matrix(-0.866025 0.5 0.5 0.866025 655.704 -19.0322)" fill="black"/>
<rect width="590.768" height="6.30152" transform="matrix(-0.866025 0.5 0.5 0.866025 662.005 -8.11768)" fill="black"/>
<rect width="590.768" height="6.30152" transform="matrix(-0.866025 0.5 0.5 0.866025 668.307 2.79688)" fill="black"/>
<rect width="590.768" height="6.30152" transform="matrix(-0.866025 0.5 0.5 0.866025 674.609 13.7114)" fill="black"/>
<rect width="590.768" height="6.30152" transform="matrix(-0.866025 0.5 0.5 0.866025 680.91 24.626)" fill="black"/>
<rect width="590.768" height="6.30152" transform="matrix(-0.866025 0.5 0.5 0.866025 687.212 35.5405)" fill="black"/>
<g style="mix-blend-mode:difference">
<path fill-rule="evenodd" clip-rule="evenodd" d="M194.378 -35.853H253.006L345.666 55.8499C373.63 83.5244 418.967 83.5244 446.93 55.8499L539.59 -35.853H598.217L476.244 84.8604C432.091 128.557 360.506 128.557 316.352 84.8604L194.378 -35.853ZM598.965 299.824H540.338L446.925 207.375C418.961 179.7 373.624 179.7 345.661 207.375L252.246 299.824H193.619L316.346 178.365C360.5 134.669 432.085 134.669 476.238 178.365L598.965 299.824Z" fill="white"/>
</g>
</g>
</g>
</g>
</g>
</g>
</g>
<defs>
<clipPath id="clip0_1554_152665">
<rect width="1440" height="46" fill="white"/>
</clipPath>
<clipPath id="clip1_1554_152665">
<rect width="1440" height="347" fill="white" transform="translate(0 -100)"/>
</clipPath>
<clipPath id="clip2_1554_152665">
<rect width="594.977" height="1098.15" fill="white" transform="translate(1756.19 732.587) rotate(-180)"/>
</clipPath>
<clipPath id="clip3_1554_152665">
<rect width="476.564" height="394.595" fill="white" transform="translate(1065.84 -56.6025)"/>
</clipPath>
<clipPath id="clip4_1554_152665">
<rect width="506.063" height="934.042" fill="white" transform="translate(375.461 635.451) rotate(-180)"/>
</clipPath>
<clipPath id="clip5_1554_152665">
<rect width="405.346" height="335.626" fill="white" transform="matrix(-1 0 0 1 598.965 -35.8018)"/>
</clipPath>
</defs>
</svg>
